<?xml version="1.0" standalone="no"?>
<!DOCTYPE svg PUBLIC "-//W3C//DTD SVG 20010904//EN"
 "http://www.w3.org/TR/2001/REC-SVG-20010904/DTD/svg10.dtd">
<svg version="1.0" xmlns="http://www.w3.org/2000/svg"
 width="720.000000pt" height="720.000000pt" viewBox="0 0 720.000000 720.000000"
 preserveAspectRatio="xMidYMid meet">
<metadata>
Created by potrace 1.14, written by Peter Selinger 2001-2017
</metadata>
<g transform="translate(0.000000,720.000000) scale(0.100000,-0.100000)"
fill="#000000" stroke="none">
<path d="M3449 6696 c-2 -2 -53 -9 -114 -15 -542 -56 -984 -227 -1355 -525
-157 -125 -347 -332 -501 -543 -85 -118 -253 -403 -300 -510 -66 -151 -138
-419 -165 -613 -24 -173 -24 -525 0 -718 16 -130 61 -388 86 -487 5 -22 10
-51 10 -65 0 -21 -2 -22 -14 -10 -20 20 -116 215 -155 313 -62 156 -114 371
-148 612 -14 105 -18 196 -18 474 0 367 -1 371 -39 130 -28 -183 -39 -382 -33
-629 14 -540 138 -979 400 -1410 161 -264 409 -552 700 -814 48 -44 85 -81 82
-84 -7 -7 -174 91 -258 150 -106 76 -184 139 -357 291 -85 75 -156 134 -158
132 -4 -4 93 -155 142 -220 366 -483 788 -786 1376 -990 113 -39 390 -117 480
-134 30 -6 100 -20 155 -31 55 -11 134 -23 175 -26 103 -9 112 -16 64 -47 -44
-28 -110 -94 -102 -102 3 -3 17 4 31 15 61 48 264 117 284 97 3 -4 -25 -40
-64 -80 -112 -118 -153 -187 -167 -280 -8 -55 -2 -60 18 -13 22 53 152 183
227 227 36 22 105 53 153 69 124 42 266 63 266 40 0 -6 -36 -48 -80 -94 -69
-72 -91 -88 -148 -109 -43 -17 -58 -26 -42 -26 37 -1 151 32 270 76 l105 40
13 -65 c7 -36 24 -86 37 -111 25 -50 81 -109 92 -98 4 4 2 29 -5 55 -21 91
-24 145 -8 190 44 124 261 357 391 422 59 29 66 27 59 -20 -4 -22 -4 -40 -1
-40 2 0 22 27 43 61 33 52 49 66 109 97 39 20 74 39 79 41 5 2 6 -21 2 -52 -9
-72 5 -80 39 -23 48 81 120 130 267 181 48 17 100 26 148 28 l74 2 47 70 c27
38 45 73 41 77 -4 4 -43 1 -86 -7 -96 -18 -239 -20 -234 -3 6 18 297 127 341
127 30 1 45 -6 68 -29 l30 -29 10 26 c18 48 -22 132 -75 160 -46 24 -90 19
-206 -20 -164 -57 -370 -94 -370 -68 0 19 57 50 96 53 l39 3 -25 17 c-22 15
-79 34 -180 58 -20 5 -72 5 -120 0 -47 -5 -130 -14 -185 -19 -182 -20 -378
-40 -553 -57 -95 -10 -169 -21 -165 -25 19 -17 242 -39 405 -39 135 -1 169 -3
153 -12 -21 -13 -46 -18 -210 -48 -99 -18 -500 -44 -635 -42 -96 2 -273 44
-353 83 -79 39 -225 139 -267 184 -13 14 -28 25 -33 25 -11 0 30 -57 86 -118
21 -24 37 -45 35 -47 -7 -8 -222 86 -333 144 -60 32 -148 85 -194 117 -45 33
-93 66 -105 74 -11 8 -67 54 -123 103 -57 48 -103 85 -103 83 0 -3 29 -49 65
-102 57 -86 76 -124 60 -124 -11 0 -115 92 -171 151 -107 111 -205 246 -378
522 -27 43 -50 76 -52 75 -3 -4 34 -132 70 -241 41 -124 33 -130 -36 -24 -218
335 -348 848 -348 1371 0 89 -4 156 -9 151 -12 -15 -38 -119 -51 -208 -6 -43
-11 -130 -10 -195 3 -165 1 -204 -8 -198 -5 3 -17 101 -27 218 -17 203 -17
221 -1 373 9 88 28 206 42 263 29 120 95 326 119 371 9 18 15 37 13 42 -9 26
-151 -242 -189 -356 -7 -22 -16 -44 -20 -50 -15 -22 -68 -237 -88 -355 -23
-136 -41 -325 -41 -434 0 -94 -14 -74 -34 49 -10 55 -22 129 -29 165 -19 105
-14 561 7 695 128 811 585 1439 1286 1767 404 189 958 273 1310 198 440 -94
756 -235 1065 -475 151 -118 348 -319 430 -439 12 -17 42 -60 67 -96 99 -142
219 -386 281 -571 33 -99 72 -261 94 -389 24 -143 24 -519 0 -670 -90 -574
-392 -1051 -862 -1359 -178 -117 -475 -240 -685 -284 -258 -55 -601 -68 -865
-33 -175 22 -211 31 -345 84 -264 103 -477 227 -679 397 -144 121 -304 301
-403 452 -33 51 -63 91 -66 89 -2 -3 17 -43 43 -88 26 -46 59 -103 73 -128 30
-54 159 -227 216 -290 133 -148 293 -288 451 -395 99 -67 400 -235 421 -235 6
0 31 -9 55 -19 24 -11 112 -33 194 -49 673 -136 1270 -29 1745 312 99 71 106
76 219 177 284 252 524 615 649 985 35 103 85 330 101 455 16 121 13 393 -4
533 -39 314 -121 589 -260 871 -128 261 -259 447 -460 654 -262 271 -513 452
-805 583 -245 109 -433 160 -715 193 -118 13 -366 21 -376 11z m1550 -4992
c15 -11 19 -20 13 -26 -13 -13 -52 8 -52 27 0 19 10 19 39 -1z"/>
<path d="M2657 5544 c-3 -3 -2 -14 3 -23 4 -9 25 -52 45 -96 40 -90 105 -201
147 -256 15 -20 28 -40 28 -44 0 -16 66 -86 115 -121 l55 -39 0 -146 c0 -131
12 -249 39 -379 5 -25 15 -75 21 -112 13 -71 34 -104 51 -77 4 8 16 48 25 89
8 41 24 111 35 156 15 64 20 125 23 301 l3 221 34 29 c41 35 249 190 301 224
31 21 266 186 277 196 8 6 -41 52 -71 64 -26 10 -33 9 -56 -9 -15 -12 -97 -68
-182 -125 -310 -209 -463 -296 -485 -277 -7 6 -45 59 -85 118 -126 186 -210
277 -275 302 -30 12 -39 12 -48 4z"/>
<path d="M4615 5018 c-108 -217 -275 -432 -437 -564 -80 -64 -115 -77 -111
-39 9 72 26 173 43 250 37 172 70 348 70 379 0 38 -22 71 -59 91 -33 17 -44 8
-79 -61 -47 -94 -129 -425 -139 -561 -5 -76 -4 -85 21 -127 28 -48 107 -123
145 -138 17 -6 35 -5 55 4 35 14 207 182 281 275 48 61 82 82 71 46 -24 -88
-7 -223 36 -287 46 -67 116 -128 88 -77 -19 36 -11 199 15 314 37 163 136 447
177 509 27 39 22 62 -22 102 -65 59 -69 56 -155 -116z"/>
<path d="M4485 3990 c-3 -11 -27 -30 -53 -43 -36 -17 -52 -33 -69 -67 -21 -43
-22 -50 -11 -143 9 -77 9 -108 -1 -148 -13 -50 -13 -51 15 -80 38 -39 51 -37
64 14 27 106 44 142 70 145 21 2 28 -3 38 -32 17 -47 123 -143 167 -152 62
-11 59 1 -11 42 -56 32 -74 49 -96 89 -15 28 -28 55 -28 62 0 6 16 21 35 33
42 26 65 66 65 114 0 27 -8 43 -38 73 -43 42 -128 113 -136 113 -2 0 -7 -9
-11 -20z m113 -86 c34 -24 30 -89 -8 -141 -28 -37 -84 -73 -96 -61 -4 5 33
152 51 206 6 16 26 15 53 -4z m-148 -8 c0 -23 -61 -186 -70 -186 -12 0 -19 89
-9 124 5 17 21 41 36 53 33 27 43 29 43 9z"/>
<path d="M3742 3956 c-76 -106 -162 -312 -162 -388 0 -42 21 -88 40 -88 18 0
46 40 69 97 13 32 52 122 87 200 35 79 64 149 64 156 0 13 -31 46 -56 60 -6 4
-25 -13 -42 -37z"/>
<path d="M2465 3959 c-38 -11 -80 -22 -93 -26 -35 -9 -38 -31 -9 -61 l26 -27
-20 -57 c-20 -53 -24 -57 -65 -67 -24 -6 -44 -16 -44 -21 0 -13 37 -50 50 -50
20 0 9 -52 -16 -77 -23 -23 -25 -28 -13 -51 21 -39 46 -45 119 -28 284 63 286
64 259 92 -14 14 -27 14 -128 0 -162 -23 -155 -24 -147 27 4 23 11 47 17 52 5
6 58 26 116 45 138 45 149 66 30 57 -47 -4 -92 -10 -101 -13 -13 -5 -16 2 -16
35 0 40 2 41 58 70 32 16 75 33 96 36 47 9 55 29 26 61 -28 29 -52 29 -145 3z
m5 -99 c-8 -6 -22 -10 -30 -9 -9 0 -5 6 10 14 27 14 44 10 20 -5z"/>
<path d="M4951 3954 c-46 -14 -88 -27 -93 -30 -15 -9 -9 -30 15 -53 l24 -22
-21 -59 c-19 -56 -23 -59 -63 -70 -24 -5 -43 -16 -43 -24 0 -16 32 -46 49 -46
21 0 2 -63 -25 -86 l-25 -21 29 -31 c17 -18 35 -32 42 -32 25 0 326 73 335 81
6 6 3 15 -6 25 -14 14 -27 14 -128 0 -151 -22 -151 -22 -151 12 0 59 18 73
134 111 122 40 147 61 69 60 -26 0 -70 -4 -98 -9 -27 -4 -53 -5 -56 -2 -4 4
-4 23 -2 42 4 32 10 37 66 62 34 15 77 31 96 36 43 10 47 21 21 55 -27 34 -57
34 -169 1z m29 -94 c-16 -11 -40 -13 -40 -5 0 8 44 24 50 18 2 -2 -2 -8 -10
-13z"/>
<path d="M4001 3925 c-57 -53 -94 -118 -116 -204 -22 -85 -14 -121 38 -176 66
-68 106 -71 193 -13 98 67 178 202 160 274 -10 38 -95 120 -134 129 -17 3 -36
13 -43 21 -20 24 -48 16 -98 -31z m189 -87 c0 -25 -48 -115 -81 -153 -43 -49
-107 -95 -131 -95 -17 0 -19 5 -13 33 4 17 24 70 44 116 29 67 42 86 66 97 39
17 115 18 115 2z"/>
<path d="M2948 3823 c-10 -16 -35 -48 -57 -73 -38 -42 -42 -44 -52 -26 -35 57
-119 128 -119 101 0 -14 36 -74 67 -113 l35 -43 -59 -65 c-82 -92 -88 -103
-75 -116 17 -17 64 9 133 71 l56 50 19 -21 c32 -34 138 -106 169 -114 27 -6
25 -3 -20 33 -27 23 -70 61 -95 87 l-44 46 62 63 c34 34 62 66 62 71 0 12 -49
76 -58 76 -4 0 -15 -12 -24 -27z"/>
<path d="M3264 3821 c-88 -41 -163 -134 -164 -203 0 -14 16 -57 36 -95 36 -66
36 -70 27 -131 -6 -43 -6 -70 1 -84 13 -25 42 -45 52 -36 3 4 15 49 25 101 10
51 25 111 32 133 l14 39 65 -3 c112 -6 178 42 178 128 0 119 -152 205 -266
151z m203 -56 c66 -76 -15 -195 -132 -195 -44 0 -44 4 -3 132 l31 100 41 -5
c27 -4 49 -15 63 -32z m-201 0 c-3 -9 -15 -47 -27 -86 -19 -63 -24 -70 -43
-65 -19 5 -20 4 -3 -8 15 -12 16 -19 5 -65 -6 -28 -15 -51 -19 -51 -11 0 -49
83 -49 106 0 36 48 121 87 153 41 34 58 39 49 16z"/>
</g>
</svg>
